<svg width="162" height="162" viewBox="0 0 162 162" fill="none" xmlns="http://www.w3.org/2000/svg">
<circle cx="81" cy="81" r="81" fill="#ECF7FC"/>
<circle cx="81" cy="81" r="64" fill="#DEF0F8"/>
<g clip-path="url(#clip0_748_17)">
<path d="M72.9 51.6492C72.9392 50.5821 73.3898 49.5707 74.1588 48.8236C74.9279 48.0765 75.9568 47.6506 77.0331 47.634C79.1769 47.5462 81.3161 47.895 83.3186 48.659C84.463 49.0486 85.0266 48.7522 85.7013 47.8119C87.4093 45.4993 89.5783 43.983 92.6014 43.9915C94.4828 43.9915 96.2876 44.7317 97.6196 46.0498C98.9516 47.3678 99.7021 49.1561 99.7066 51.0224C99.7664 54.0041 99.7665 54.0041 102.508 55.0715C103.703 55.5289 104.899 56.0033 106.086 56.4861C106.997 56.7869 107.774 57.3927 108.283 58.1995C108.793 59.0064 109.003 59.9639 108.879 60.908C108.827 61.3993 108.827 61.9499 108.195 62.0346C107.563 62.1193 107.538 61.6195 107.427 61.1875C107.229 60.5187 106.849 59.9174 106.327 59.4507C105.805 58.984 105.163 58.6703 104.472 58.5446C102.474 57.9855 100.501 57.3332 98.4941 56.7657C96.7861 56.2744 96.137 55.4273 96.7006 53.5467C97.5546 50.6158 96.4958 48.0999 94.2925 47.2443C92.2856 46.4735 89.792 47.7102 88.3145 50.243C88.0327 50.709 87.8362 51.2257 87.5544 51.7C86.8456 52.886 85.8978 53.3942 84.4801 52.8436C82.7721 52.166 81.0642 51.5052 79.3562 50.9207C77.0419 50.1414 76.6404 50.3278 75.3679 52.5726C77.2638 53.0469 78.0751 54.3599 78.4253 56.1812C78.8181 58.1973 79.4244 60.171 79.8856 62.1786C79.9484 62.534 80.1142 62.8636 80.363 63.1269C80.6118 63.3902 80.9325 63.5758 81.286 63.661C85.556 65.0333 89.9114 66.3887 94.1728 67.8965C94.6838 68.1409 95.2646 68.2019 95.8159 68.069C96.3672 67.9362 96.8549 67.6177 97.196 67.168C98.7161 65.5924 100.407 64.1862 102.012 62.7038C102.358 62.3609 102.8 62.1303 103.28 62.0425C103.761 61.9548 104.257 62.0141 104.703 62.2125C108.119 63.3984 111.535 64.4827 114.95 65.6009C117.068 66.304 117.427 66.9901 116.658 69.1587C114.797 74.4163 112.915 79.6683 111.013 84.9146C108.651 91.4824 106.28 98.0446 103.9 104.601C102.192 109.396 100.398 114.173 98.7161 119.002C98.2122 120.416 97.4265 120.696 96.043 120.221C85.8862 116.539 75.7237 112.869 65.5556 109.209C64.582 108.862 63.6 108.523 62.6264 108.167C62.2336 108.032 61.6187 107.956 61.7724 107.43C61.9603 106.778 62.5581 107.083 63.0021 107.227C65.7861 108.074 68.5787 109.006 71.3542 109.921C79.3248 112.524 87.2697 115.133 95.189 117.748C96.2565 118.104 96.7945 117.816 97.1276 116.799C100.06 107.871 103 98.9425 105.949 90.0141C107.857 84.2539 109.767 78.4965 111.68 72.7419C113.012 68.7266 112.85 69.1417 108.904 67.5576C104.959 65.9736 102.354 66.8207 100.074 70.0312C99.7262 70.4551 99.3373 70.8438 98.9125 71.1917C98.3087 71.8613 97.5059 72.3231 96.6201 72.5103C95.7343 72.6976 94.8115 72.6007 93.985 72.2336C88.861 70.4632 83.6175 69.0062 78.3911 67.5238C77.6785 67.363 77.0306 66.995 76.53 66.4668C76.0295 65.9386 75.6992 65.2743 75.5814 64.5589C75.1032 62.5513 74.4882 60.5861 74.0356 58.5785C73.9652 58.1293 73.7596 57.7118 73.4456 57.3807C73.1316 57.0496 72.7242 56.8204 72.2766 56.7233C69.9879 56.0795 67.7163 55.3764 65.4446 54.7072C64.5223 54.4362 63.9928 54.7072 63.7367 55.7153C59.814 71.2736 55.8599 86.8262 51.8746 102.373C51.5074 103.813 51.7038 104.508 53.1898 105.135C65.8915 110.505 78.5647 115.935 91.2095 121.424C91.8671 121.704 92.7637 121.806 93.0455 123C89.843 122.051 86.82 121.196 83.814 120.264C72.4274 116.729 61.0664 113.176 49.7311 109.607C44.5559 107.989 44.4534 107.913 45.7174 102.619C49.0138 88.7096 52.6348 74.885 56.4692 61.1113C57.3232 58.0787 58.2539 55.063 59.1592 52.0474C60.2181 48.515 61.2344 48.0067 64.7187 49.1079C67.4514 49.955 70.0904 51.1156 72.9256 51.6492L73.0707 51.717L72.9 51.6492Z" fill="#159FED"/>
<path d="M72.9 51.6493L73.028 51.7255L72.8829 51.6578L72.9 51.6493Z" fill="#159FED"/>
</g>
<defs>
<clipPath id="clip0_748_17">
<rect width="72" height="79" fill="white" transform="translate(45 44)"/>
</clipPath>
</defs>
</svg>
