<svg width="162" height="162" viewBox="0 0 162 162" fill="none" xmlns="http://www.w3.org/2000/svg">
<circle cx="81" cy="81" r="81" fill="#ECF7FC"/>
<circle cx="81" cy="81" r="64" fill="#DEF0F8"/>
<g clip-path="url(#clip0_748_16)">
<path d="M130.917 75.9818C130.808 75.5501 130.552 75.1695 130.192 74.9051C129.832 74.6407 129.392 74.5087 128.945 74.5318C127.768 74.4392 126.602 74.2644 125.435 74.0999C117.722 72.9789 111.299 69.6675 106.653 63.2402C104.763 60.6281 103.143 57.8103 100.685 55.5993C96.8958 52.1851 91.4852 53.378 89.6473 58.1291C88.8877 60.2774 88.2975 62.4814 87.8817 64.721C87.2313 67.6622 86.7048 70.7062 84.1751 72.9481C83.9892 72.097 83.9026 71.2274 83.917 70.3566C83.7105 65.2867 84.4021 60.1859 83.4522 55.1468C82.9979 52.6787 81.1498 51.5887 78.7234 52.1543C76.2969 52.7199 75.8115 54.3858 75.9664 56.2678C76.3794 61.749 76.9989 67.22 77.4945 72.7218C77.4945 73.2257 77.8972 73.8222 77.4945 74.1718C77.0918 74.5215 76.369 74.0999 75.925 73.7605C74.1297 72.3132 72.89 70.2939 72.4145 68.0427C71.4853 64.6491 71.2684 61.06 69.7816 57.8103C67.7165 53.3575 62.7294 52.4216 59.4563 55.9901C58.0279 57.4857 56.8246 59.1796 55.8838 61.0189C54.1691 64.7404 51.1306 67.6971 47.3551 69.3179C45.5895 70.0686 43.793 70.7473 42.0067 71.4364C39.0434 72.5676 35.8116 72.9172 32.9411 74.3158C30.5457 75.4882 30.4424 77.113 32.6313 78.5836C35.7794 80.561 39.4829 81.4768 43.194 81.1957C43.9271 81.1957 45.0423 80.7843 45.2591 81.9155C46.0851 86.2964 49.3894 86.8517 52.9413 86.9032C54.6553 86.9032 56.3176 86.6563 57.7941 88.1475C58.744 89.1142 60.3031 88.7954 61.6247 88.4971C63.5293 88.2041 65.3471 87.5024 66.9524 86.4404C68.1399 85.5354 69.0177 86.6049 69.6991 87.0986C70.68 87.7979 69.3789 88.2298 69.0588 88.7645C68.7388 89.2993 68.2534 89.7929 67.923 90.3996C65.8579 94.0401 68.8731 99.655 73.0032 99.8607C72.6211 98.9763 71.702 98.6884 71.0722 98.1022C68.7284 95.9015 67.5514 92.9603 69.8436 90.6156C71.2788 89.1347 72.652 87.5305 74.7584 86.9649C75.7083 86.6975 76.1834 86.101 75.8839 85.1652C75.5845 84.2294 74.7998 84.507 74.0667 84.7744C72.0946 85.5046 70.3082 85.4634 69.0485 83.417C68.5322 82.5737 67.9025 82.4709 67.0558 83.1907C65.2091 84.8116 62.8368 85.7137 60.3754 85.7308C60.0243 85.7308 59.6217 86.029 59.3429 85.6794C59.0641 85.3297 59.2809 84.8361 59.5803 84.507C60.2618 83.746 60.9328 82.8925 59.9726 82.0286C59.0123 81.1648 58.0934 81.6584 57.2055 82.3886C56.4934 82.9724 55.6649 83.3989 54.7749 83.64C53.8849 83.8811 52.9537 83.9313 52.0429 83.7872C51.4452 83.796 50.8561 83.6452 50.3368 83.3504C49.8174 83.0556 49.3867 82.6276 49.0897 82.1109C48.5012 80.6712 50.1224 80.5786 50.7832 79.9616C51.444 79.3446 52.5075 78.5219 51.8157 77.3701C51.5449 76.9171 51.1051 76.5893 50.5924 76.4583C50.0797 76.3273 49.5357 76.4037 49.0794 76.6708C48.743 76.8061 48.3981 76.9194 48.0469 77.0102C44.495 77.9768 42.3062 77.8946 39.983 76.6194C41.5008 76.1875 42.9257 75.8481 44.3196 75.3956C49.5545 73.6577 54.6447 71.642 57.8662 66.7881C59.2911 64.6491 60.6954 62.4929 62.079 60.3196C62.6675 59.4043 63.3594 58.5508 64.5262 58.777C65.6929 59.0033 65.7651 60.155 66.0026 61.0497C66.7357 63.8161 67.3553 66.6235 68.1297 69.3796C69.3067 73.5857 71.3407 77.3907 75.7082 78.7995C78.3102 79.6325 78.6716 81.062 78.8058 83.2627C79.033 87.9521 79.3222 92.6415 79.7559 97.3103C80.0553 100.519 80.1792 100.395 76.9061 101.146C74.4694 101.681 71.9498 102.072 69.7505 103.388C68.9787 103.769 68.3565 104.396 67.9824 105.169C67.6084 105.942 67.5039 106.817 67.6855 107.656C67.9953 109.363 69.3066 109.908 70.7831 110.402C73.4573 111.296 76.0594 110.515 78.651 110.134C79.8384 109.97 80.365 110.031 80.7161 111.317C81.0671 112.602 80.8605 113.24 79.5389 113.61C78.0417 114.021 76.5757 114.556 75.1302 115.112C74.6593 115.234 74.2412 115.506 73.9394 115.887C73.6376 116.267 73.4685 116.735 73.4574 117.22C73.4574 118.444 74.3144 118.875 75.254 119.143C76.5175 119.548 77.8126 119.847 79.1259 120.038C80.396 120.181 81.4182 120.202 81.4801 121.93C81.5421 123.657 80.303 123.812 79.0639 124.1C78.4139 124.176 77.7717 124.307 77.1436 124.49C76.6798 124.611 76.2593 124.859 75.9306 125.206C75.6019 125.554 75.3782 125.986 75.285 126.455C75.2334 126.804 75.574 127.195 75.956 127.483C76.9163 128.295 78.145 129.18 79.3634 128.789C81.542 128.09 81.9653 131.699 82.6674 130.753C83.9581 129.026 85.3417 129.427 86.7975 129.283C87.5616 129.221 88.3567 129.92 89.699 129.18C88.3083 128.857 86.8974 128.626 85.4759 128.491C83.9994 128.491 83.6382 127.863 83.6072 126.434C83.6072 124.675 84.1026 123.935 85.9921 123.884C87.4583 123.884 89.5441 123.74 89.73 121.878C89.9468 119.75 87.7373 119.513 86.2402 119.235C84.743 118.958 83.9272 118.783 84.0511 117.024C84.175 115.43 83.9686 114.063 86.2092 113.651C88.8526 113.294 91.3918 112.39 93.664 110.998C94.1057 110.667 94.4392 110.213 94.6229 109.693C94.8066 109.173 94.8322 108.611 94.6965 108.077C94.5933 106.936 93.8291 106.453 92.8276 106.165C90.8809 105.704 88.8599 105.648 86.8906 106C85.9406 106.113 84.8254 106.864 84.5054 105.147C84.416 104.864 84.395 104.565 84.4436 104.273C84.4922 103.981 84.6091 103.705 84.7852 103.466C84.9612 103.228 85.1914 103.034 85.4567 102.901C85.722 102.767 86.0151 102.698 86.3123 102.699C88.0664 102.387 89.7927 101.937 91.4749 101.352C99.064 98.7295 101.16 93.7316 97.3192 87.4174C99.1777 86.7695 101.336 86.9032 102.874 85.4943C103.214 85.1755 103.634 84.9531 104.09 84.85C104.545 84.747 105.02 84.767 105.466 84.9081C107.355 85.2269 109.596 85.4737 110.566 83.3553C111.341 81.7201 112.291 81.823 113.664 82.0698C116.538 82.6154 119.495 82.5502 122.342 81.8786C125.189 81.2069 127.861 79.9439 130.184 78.1722C130.512 77.9221 130.758 77.5796 130.889 77.1891C131.019 76.7986 131.029 76.378 130.917 75.9818ZM79.4461 107.244C77.9504 107.63 76.4046 107.786 74.8617 107.707C73.8292 107.707 72.8896 107.707 72.012 107.707C71.4854 107.707 70.9793 107.584 70.8037 106.967C70.754 106.707 70.8067 106.438 70.951 106.216C71.0952 105.994 71.3198 105.835 71.5781 105.774C74.1725 104.769 76.906 104.166 79.6836 103.985C80.5406 103.913 80.3546 104.807 80.3443 105.332C80.3339 106.072 80.6954 107.008 79.4461 107.244ZM80.6954 117.765C80.3753 118.557 79.5803 118.248 78.8575 118.351C77.732 118.084 75.76 118.351 75.5741 117.199C75.3883 116.047 77.4636 115.986 78.6717 115.708C79.3015 115.554 80.0862 114.844 80.6644 115.708C80.8357 116.023 80.928 116.374 80.9334 116.733C80.9388 117.091 80.8571 117.445 80.6954 117.765ZM81.1393 127.843C80.7779 128.604 79.7764 128.1 79.0743 127.997C77.7423 127.791 76.2247 127.658 75.9149 125.889H75.987C76.9317 125.561 77.8977 125.296 78.8782 125.097C79.6216 124.984 80.6645 124.634 81.0466 125.56C81.3448 126.288 81.3666 127.1 81.1083 127.843H81.1393ZM85.3314 120.572C86.1471 120.922 88.0573 120.757 87.9541 121.899C87.8508 123.04 85.8889 122.866 84.7532 123.133C83.7929 123.359 83.5142 122.68 83.5038 121.806C83.4729 120.675 84.144 120.48 85.3004 120.572H85.3314ZM85.001 109.024L89.854 108.119C90.8349 108.232 91.7537 107.923 91.9808 108.674C92.208 109.425 91.3613 109.959 90.7212 110.216C89.0898 110.902 87.4308 111.502 85.7443 112.016C85.0629 112.232 84.1337 112.356 84.0201 111.286C83.8962 110.422 83.5141 109.281 84.9699 109.024H85.001ZM114.005 79.7148C113.137 79.5914 112.28 79.3549 111.413 79.1698C108.987 78.6453 108.687 78.8407 108.615 81.3088C108.615 82.2343 108.068 82.4091 107.345 82.4811C106.306 82.5238 105.286 82.1996 104.464 81.5659C103.504 80.9694 102.337 80.7637 101.821 82.0184C100.923 84.2088 99.0433 84.5379 97.1331 84.6613C95.0731 84.9645 92.9699 84.7561 91.0103 84.0546C90.2256 83.7152 89.317 83.6432 88.9453 84.6407C88.5736 85.6383 89.4617 85.8851 90.1122 86.245C92.1772 87.3762 94.2421 88.4766 95.3882 90.739C95.834 91.4721 96.0099 92.3369 95.8856 93.185C95.7612 94.0331 95.3445 94.8117 94.7068 95.3873C92.1152 97.9685 88.7697 98.7912 85.3108 99.3671C84.3918 99.5214 84.3403 98.9969 84.3506 98.3387C84.3506 92.1685 84.3506 85.9982 84.3506 79.8279C84.3472 79.4947 84.4435 79.1679 84.6274 78.8895C84.8113 78.6111 85.0745 78.3936 85.3831 78.2648C89.0692 76.1155 90.4734 72.4956 91.4852 68.67C92.1667 66.1196 92.6416 63.5281 93.2715 60.9572C94.1078 57.5635 96.0595 56.9465 98.6098 59.3426C100.613 61.2246 101.862 63.703 103.483 65.8728C108.088 72.0431 114.356 75.663 121.707 77.5861C121.996 77.658 122.275 77.73 122.554 77.8226C122.554 77.8226 122.616 77.9357 122.771 78.2339C120.037 79.5096 117.007 80.0215 114.005 79.7148Z" fill="#159FED"/>
</g>
<defs>
<clipPath id="clip0_748_16">
<rect width="100" height="79" fill="white" transform="translate(31 52)"/>
</clipPath>
</defs>
</svg>
