<svg width="115" height="107" viewBox="0 0 115 107" fill="none" xmlns="http://www.w3.org/2000/svg">
<g clip-path="url(#clip0_623_16)">
<path d="M90.9283 91.1405C88.8228 92.3947 86.8116 93.76 84.6433 94.8554C77.5203 98.5173 70.3712 102.132 63.1959 105.698C58.6549 107.968 57.4291 107.397 55.4808 102.841C52.8096 96.5858 49.9029 90.442 47.2789 84.1712C46.3833 82.0439 45.1736 82.1868 43.5709 82.9171C36.3746 86.0921 28.9583 88.791 21.5734 91.6168C15.7912 93.8235 14.8326 93.4425 12.4129 87.7749C8.73612 79.107 4.87086 70.5343 1.037 61.9298C-0.927066 57.5165 -0.440207 56.3735 3.94359 54.4049C11.4385 51.0235 18.8548 47.4515 26.3654 44.1335C29.2565 42.8635 29.9951 41.5459 28.4081 38.4978C25.2656 32.5921 22.5787 26.4643 19.7033 20.3999C17.8335 16.4469 18.4778 14.7324 22.5159 12.9384C32.5745 8.39693 42.8532 4.37007 53.3126 0.873162C58.5292 -0.825503 59.6916 -0.349242 61.6871 4.87375C63.9026 10.7 66.1025 16.5422 68.098 22.4478C68.9307 24.9243 70.0462 25.2101 72.3245 24.3211C79.9923 21.3841 87.7699 18.733 95.4533 15.7801C98.4544 14.6371 100.419 15.6214 101.377 18.3361C105.054 28.8456 109.752 38.9741 114.073 49.1502C115.644 52.992 115.188 54.1192 111.323 55.7226C103.696 59.0856 95.8843 62.0061 87.9274 64.4699C84.7849 65.3907 84.5334 66.8194 85.4761 69.5976C87.0474 74.2015 88.3356 78.9165 89.6398 83.6156C89.844 84.3141 90.897 85.4095 89.5143 85.9016C88.5402 86.2668 88.273 85.1555 87.9431 84.4729C85.4448 78.7577 82.8994 73.0743 80.4796 67.3275C78.9084 63.5809 79.2852 62.9776 82.899 61.4853C90.3887 58.4055 97.7737 55.0664 105.054 51.468C106.625 50.7218 107.442 50.1503 106.468 48.1818C102.76 40.6568 99.3816 32.9732 96.3962 25.1307C95.7363 23.3686 95.2337 22.7018 93.0654 23.5432C85.9633 26.3531 78.7195 28.8614 71.5075 31.3856C66.9508 32.9732 65.2227 32.1318 63.51 27.512C61.2317 21.4635 58.9692 15.415 56.8794 9.28711C56.078 6.96931 54.8837 6.63592 52.794 7.41382C44.8958 10.3984 37.0711 13.5735 29.3196 16.939C27.0412 17.9074 26.9312 19.1457 27.7483 21.1301C30.5137 27.3374 33.2005 33.5923 35.9659 39.7996C38.0085 44.4193 37.5373 46.0545 32.9021 47.896C24.763 51.1981 16.6028 54.4367 8.42181 57.6117C6.04922 58.5325 4.6352 59.3898 6.17503 62.4855C9.8989 69.9945 13.2299 77.71 16.7495 85.3301C18.038 88.1242 20.0961 86.5525 21.6516 85.9175C29.3822 82.8377 37.1445 79.7738 44.7022 76.297C47.9861 74.8048 49.5415 75.9478 50.7985 78.6625C53.611 84.7427 56.5178 90.7595 59.079 96.9509C60.2417 99.7291 61.3258 100.031 64.0755 98.8718C72.1919 95.2562 80.6672 92.5261 89.3571 90.7278C89.4858 90.6461 89.6299 90.5919 89.7802 90.5685C89.9304 90.545 90.0838 90.5529 90.2309 90.5916C90.3781 90.6302 90.5157 90.6989 90.6356 90.7933C90.7556 90.8876 90.8552 91.0058 90.9283 91.1405Z" fill="#1280BD" fill-opacity="0.2"/>
</g>
<defs>
<clipPath id="clip0_623_16">
<rect width="115" height="107" fill="white"/>
</clipPath>
</defs>
</svg>
