<svg width="192" height="192" viewBox="0 0 192 192" fill="none" xmlns="http://www.w3.org/2000/svg">
<path d="M-5.9998 171.843L-5.99982 13.4591C-5.95203 8.2739 -3.85511 3.31806 -0.166505 -0.327315C3.5221 -3.97269 8.50299 -6.01168 13.6896 -5.99951L172.11 -5.99953C174.668 -6.00549 177.201 -5.50632 179.565 -4.53055C181.929 -3.55477 184.077 -2.12161 185.886 -0.313522C187.694 1.49457 189.128 3.642 190.104 6.00552C191.08 8.36905 191.579 10.902 191.573 13.4591L191.573 40.0676C191.579 42.6246 191.08 45.1577 190.104 47.5212C189.128 49.8847 187.694 52.0321 185.886 53.8402C184.077 55.6483 181.929 57.0815 179.565 58.0573C177.201 59.033 174.668 59.5322 172.11 59.5262L59.9937 59.5262L59.9937 171.843C59.9817 177 57.9273 181.943 54.2799 185.589C50.6324 189.236 45.6888 191.29 40.5306 191.302L13.8707 191.302C8.65641 191.35 3.6359 189.329 -0.0892797 185.681C-3.81446 182.033 -5.94009 177.056 -5.9998 171.843Z" fill="#2FD381"/>
</svg>
