<svg width="193" height="197" viewBox="0 0 193 197" fill="none" xmlns="http://www.w3.org/2000/svg">
<path d="M197.573 19.4594L197.573 177.844C197.525 183.029 195.428 187.985 191.74 191.63C188.051 195.275 183.07 197.314 177.884 197.302L19.4632 197.302C16.9056 197.308 14.3719 196.809 12.0078 195.833C9.64378 194.858 7.49585 193.424 5.68735 191.616C3.87885 189.808 2.44543 187.661 1.46943 185.297C0.493431 182.934 -0.00591588 180.401 5.28829e-05 177.844L5.28829e-05 151.235C-0.00591588 148.678 0.493431 146.145 1.46943 143.782C2.44543 141.418 3.87885 139.271 5.68735 137.463C7.49585 135.654 9.64378 134.221 12.0078 133.245C14.3719 132.27 16.9056 131.771 19.4632 131.777L131.58 131.777L131.58 19.4594C131.592 14.3023 133.646 9.35997 137.293 5.71336C140.941 2.06674 145.884 0.0127969 151.043 0.000845337L177.703 0.000845337C182.917 -0.0474348 187.937 1.97409 191.663 5.62207C195.388 9.27005 197.513 14.2465 197.573 19.4594Z" fill="#2FD381"/>
</svg>
