<svg width="55" height="43" viewBox="0 0 55 43" fill="none" xmlns="http://www.w3.org/2000/svg">
<g clip-path="url(#clip0_183_13)">
<path d="M23.9186 42.9966C16.7339 42.9966 9.54869 42.9966 2.36289 42.9966C1.60455 42.9966 0.897926 42.904 0.398114 42.2511C0.126441 41.8878 -0.0138515 41.444 -1.19867e-05 40.9915C-1.19867e-05 30.4895 -1.19867e-05 19.9876 -1.19867e-05 9.48565C-1.19867e-05 8.23803 0.770384 7.50625 2.03198 7.50282C3.98986 7.50282 5.94775 7.46513 7.90391 7.51826C8.5933 7.53711 8.72774 7.30406 8.7105 6.68368C8.67086 5.18756 8.69327 3.6897 8.70016 2.19359C8.70705 0.697474 9.38955 4.77742e-06 10.9148 -0.00170898C24.8992 -0.00170898 38.8831 -0.00170898 52.8663 -0.00170898C54.2865 -0.00170898 54.9948 0.711218 54.9948 2.14221C54.9948 12.1312 54.9948 22.1201 54.9948 32.109C54.9948 33.6154 54.2951 34.3181 52.7956 34.3249C51.3755 34.3249 49.9553 34.3438 48.5369 34.3249C48.0423 34.3146 47.8647 34.4398 47.8734 34.9625C47.9027 36.9093 47.8854 38.8544 47.8837 40.8012C47.8837 42.3076 47.1702 43.0017 45.6001 43.0017C38.3752 43.0006 31.148 42.9988 23.9186 42.9966ZM23.9582 11.2285C17.4607 11.2285 10.9614 11.2286 4.46382 11.2166C3.90713 11.2166 3.73651 11.3468 3.73824 11.9243C3.75777 20.8016 3.75777 29.6789 3.73824 38.5562C3.73824 39.1389 3.92265 39.2623 4.47245 39.2623C17.4446 39.2486 30.4184 39.2486 43.394 39.2623C43.9765 39.2623 44.1541 39.1149 44.1523 38.5151C44.1328 29.6584 44.1328 20.8039 44.1523 11.9518C44.1523 11.3331 43.949 11.2183 43.3837 11.22C36.9091 11.2394 30.4339 11.2422 23.9582 11.2285ZM31.869 3.7394H21.9934C19.0239 3.7394 16.056 3.74801 13.0864 3.72915C12.6125 3.72915 12.4367 3.85937 12.4608 4.34437C12.497 5.04701 12.4608 5.75481 12.4712 6.46088C12.4712 7.66051 12.3626 7.49943 13.4863 7.49943C24.2202 7.49943 34.9547 7.49943 45.6897 7.49943C47.1977 7.49943 47.8871 8.18491 47.8871 9.70159C47.8871 12.8675 47.8871 16.0323 47.8871 19.1959C47.8871 22.7948 47.8871 26.3834 47.8871 29.9754C47.8871 30.4381 47.9923 30.6335 48.4938 30.6026C49.1594 30.5546 49.8275 30.5546 50.4931 30.6026C51.1308 30.6575 51.2738 30.4313 51.2721 29.8177C51.2514 21.3906 51.2514 12.964 51.2721 4.53804C51.2721 3.89881 51.1239 3.71372 50.4603 3.71715C44.2592 3.74971 38.0633 3.7394 31.869 3.7394Z" fill="#1171A5" fill-opacity="0.5"/>
<path d="M38.9423 35.8433C38.6958 35.9924 38.4769 35.9359 38.2684 35.9359C28.1572 35.9359 18.0461 35.9359 7.93496 35.9359C7.11802 35.9359 7.1749 35.9358 7.08528 35.0944C6.97842 34.0953 7.28692 33.3121 7.88842 32.51C10.8063 28.6164 13.6673 24.6833 16.5507 20.7639C17.1039 20.0116 17.0022 20.099 17.5451 20.7639C20.1493 23.9241 22.7587 27.0808 25.3422 30.2581C25.6869 30.6883 25.8679 30.7003 26.235 30.2839C27.3673 28.9951 28.5513 27.7509 29.6992 26.4776C29.9456 26.2051 30.0887 26.1126 30.3886 26.4433C33.1875 29.5212 35.9968 32.5906 38.8164 35.6513C38.8626 35.7125 38.9046 35.7766 38.9423 35.8433Z" fill="#1171A5" fill-opacity="0.5"/>
<path d="M33.11 16.2962C33.5086 16.2921 33.904 16.3667 34.2734 16.5156C34.6429 16.6645 34.9789 16.8848 35.2621 17.1637C35.5454 17.4426 35.7701 17.7746 35.9235 18.1405C36.0768 18.5064 36.1556 18.8989 36.1554 19.2953C36.1549 20.096 35.8369 20.8642 35.2702 21.4331C34.7036 22.002 33.9341 22.3256 33.1289 22.3338C32.3246 22.3306 31.5542 22.0114 30.9857 21.4457C30.4172 20.8801 30.0966 20.1139 30.0938 19.3141C30.0897 18.9183 30.1648 18.5255 30.3147 18.1588C30.4646 17.792 30.6863 17.4585 30.9669 17.1777C31.2476 16.8969 31.5815 16.6743 31.9494 16.523C32.3173 16.3717 32.7118 16.2946 33.11 16.2962Z" fill="#1171A5" fill-opacity="0.5"/>
</g>
<defs>
<clipPath id="clip0_183_13">
<rect width="55" height="43" fill="white"/>
</clipPath>
</defs>
</svg>
