<svg width="18" height="20" viewBox="0 0 18 20" fill="none" xmlns="http://www.w3.org/2000/svg">
<g clip-path="url(#clip0_153_5)">
<path d="M17.9154 14.6552H11.5098C11.8943 14.2507 12.1903 13.9098 12.5229 13.619C12.9766 13.2222 13.0073 12.7985 12.744 12.2881C12.4979 11.8085 12.3018 11.3077 12.0499 10.8281C11.7981 10.3485 11.5444 9.76305 12.0384 9.12168C12.2749 8.81352 12.0807 8.18947 12.1249 7.71374C12.2403 6.46566 12.9843 5.57585 14.1262 5.27924C15.2682 4.98263 16.3582 5.42947 17.0676 6.43487C17.4694 7.00305 17.4252 7.66174 17.4963 8.29926C17.5405 8.7018 17.5078 9.06966 17.7558 9.48761C18.0308 9.95564 17.7693 10.6432 17.4002 11.0882C17.0311 11.5331 16.9734 12.1321 16.7119 12.629C16.6415 12.797 16.6328 12.9846 16.6873 13.1585C16.7419 13.3323 16.8562 13.4811 17.0099 13.5785C17.3606 13.8603 17.692 14.1653 18.0019 14.4915L17.9154 14.6552Z" fill="#159FED"/>
<path d="M5.89032 14.6455H0.00756836C0.353611 14.322 0.618909 14.0427 0.918813 13.8039C1.37636 13.4379 1.41864 13.0026 1.1418 12.5365C0.757309 11.8817 0.705438 11.1074 0.313256 10.4352C0.0633366 10.0077 -0.144323 9.39513 0.374741 8.85392C0.515081 8.70561 0.392044 8.29924 0.374741 8.01033C0.332447 7.01457 0.511253 6.12088 1.44941 5.54499C1.63781 5.44994 1.78782 5.29283 1.87427 5.10007C2.06652 4.25839 2.47791 4.52227 2.96621 4.82466C3.41415 5.10393 3.91592 5.29655 4.37347 5.56427C4.7272 5.77036 5.12324 6.0323 5.20014 6.43099C5.44044 7.68869 5.84417 8.95603 5.64039 10.2388C5.52696 10.9572 5.14053 11.6486 4.85408 12.3401C4.48113 13.2415 4.4542 13.4283 5.17512 14.0504C5.36544 14.2199 5.56927 14.3797 5.89032 14.6455Z" fill="#159FED"/>
<path d="M10.937 4.02929C11.1062 3.74808 11.1619 3.64408 11.2273 3.54778C11.8694 2.58476 11.8752 2.58472 10.789 2.25536C8.48201 1.57162 6.31537 1.88942 4.37176 3.3224C3.87961 3.68449 3.64126 3.7076 3.24523 3.22417C2.55122 2.35938 2.5089 2.37094 3.45667 1.73534C6.14812 -0.0655048 9.0145 -0.425682 12.0078 0.812762C12.7268 1.1113 13.1382 1.09976 13.4708 0.392898C13.5573 0.256592 13.6551 0.127745 13.763 0.00769043C14.3109 1.41177 14.8242 2.7311 15.3317 4.03695L10.937 4.02929Z" fill="#159FED"/>
<path d="M3.83326 19.9922C3.43531 18.644 3.06428 17.419 2.72977 16.1979C2.6894 16.0516 2.44527 15.7357 2.90282 15.7665C4.23124 15.8551 5.55965 15.9591 6.98035 16.0535C6.7881 16.3077 6.69004 16.4618 6.57277 16.6101C5.93643 17.4113 5.93068 17.4267 6.92652 17.7657C9.17772 18.5361 11.2809 18.228 13.1668 16.7661C13.6013 16.4291 13.8147 16.4214 14.178 16.8316C14.9759 17.7234 15.0124 17.7253 14.0031 18.4129C11.3559 20.2157 8.54523 20.5045 5.63078 19.1602C4.99637 18.8674 4.60801 18.8424 4.26389 19.4761C4.13529 19.6601 3.99122 19.8328 3.83326 19.9922Z" fill="#159FED"/>
</g>
<defs>
<clipPath id="clip0_153_5">
<rect width="18" height="20" fill="white"/>
</clipPath>
</defs>
</svg>
