<svg width="14" height="15" viewBox="0 0 14 15" fill="none" xmlns="http://www.w3.org/2000/svg">
<path d="M9.14112 8.52296C9.65214 7.72925 9.92328 6.8049 9.92208 5.86091C9.92208 4.54517 9.39957 3.28342 8.4692 2.35305C7.53883 1.42268 6.27654 0.899902 4.9608 0.899902C3.64506 0.899902 2.38331 1.42268 1.45294 2.35305C0.522574 3.28342 6.10352e-05 4.54517 6.10352e-05 5.86091C6.10352e-05 7.17665 0.522574 8.43854 1.45294 9.36891C2.38331 10.2993 3.64506 10.8219 4.9608 10.8219C5.99155 10.826 6.99733 10.5025 7.83219 9.89796L12.353 14.43L13.706 13.077L9.14112 8.52296ZM4.9608 9.18293C4.08559 9.18293 3.24647 8.83528 2.6276 8.21641C2.00873 7.59754 1.6608 6.75815 1.6608 5.88293C1.6608 5.00772 2.00873 4.16833 2.6276 3.54946C3.24647 2.93059 4.08559 2.58293 4.9608 2.58293C5.83602 2.58293 6.67567 2.93059 7.29454 3.54946C7.91341 4.16833 8.2608 5.00772 8.2608 5.88293C8.2608 6.75815 7.91341 7.59754 7.29454 8.21641C6.67567 8.83528 5.83602 9.18293 4.9608 9.18293Z" fill="white"/>
</svg>
