<svg width="162" height="162" viewBox="0 0 162 162" fill="none" xmlns="http://www.w3.org/2000/svg">
<circle cx="81" cy="81" r="81" fill="#ECF7FC"/>
<circle cx="81" cy="81" r="64" fill="#DEF0F8"/>
<g clip-path="url(#clip0_748_15)">
<path d="M68.1214 116.662C69.1379 116.358 70.1836 116.157 71.2421 116.061C74.7301 116.133 78.1906 115.765 81.6601 115.63C89.0674 115.352 96.4839 115.325 103.864 114.732C107.792 114.436 111.748 114.849 115.631 114.086C116.338 113.943 117.182 114.086 117.182 113.072C117.182 107.56 117.485 102.039 116.081 96.5996C115.163 93.2244 112.785 91.061 110.206 89.1041C107.578 87.1715 104.702 85.584 101.652 84.3824C100.256 83.8079 99.6597 84.14 99.0631 85.3609C96.7868 90.0557 94.4737 94.7235 92.1147 99.4093C90.1596 103.341 87.9385 107.129 85.6438 110.873C83.6979 114.041 81.8803 114.041 79.4939 111.079C75.29 105.837 70.6731 100.899 67.0016 95.2621C65.4005 93.0613 64.0754 90.6804 63.0547 88.1705C62.7151 87.1921 62.1368 87.1203 61.2189 87.4165C57.8068 88.5335 54.8272 90.6471 52.6819 93.4722C50.5367 96.2974 49.3291 99.698 49.2222 103.215C49.2222 107.776 49.3231 112.327 49.6444 116.869C49.8188 119.257 50.0483 119.499 52.4623 119.454C64.3948 119.257 76.3823 119.266 88.324 118.96C96.9979 118.736 105.672 118.889 114.337 118.709C115.037 118.553 115.771 118.632 116.42 118.934C116.42 119.427 116.071 119.427 115.759 119.445C110.068 119.715 104.369 119.903 98.6777 120.253C91.096 120.729 83.5143 121.151 75.9142 121.465C71.0127 121.654 66.0929 121.896 61.2281 122.264C58.0339 122.506 54.803 122.318 51.6271 122.865C48.2493 123.449 46.9275 122.192 46.2115 117.892C45.4442 113.017 45.0333 108.094 44.9817 103.162C44.9864 98.8337 46.316 94.6064 48.7993 91.0242C51.2826 87.4421 54.8059 84.6692 58.915 83.0628C60.1909 82.5601 61.4483 82.0036 62.7517 81.5727C64.5875 80.9623 65.8727 81.4291 66.5611 83.2065C69.8746 91.7702 75.9416 98.5655 81.5315 105.648C82.2199 106.546 82.5321 106.698 83.2481 105.576C88.1516 97.8128 92.6073 89.7871 96.5941 81.5368C97.6772 79.3285 98.5307 79.0054 100.89 79.9928C106.275 82.081 111.178 85.2035 115.31 89.1759C117.667 91.6204 119.146 94.7496 119.523 98.0898C120.34 103.476 119.78 108.862 119.936 114.248C119.982 115.702 119.229 116.25 117.77 116.357C112.391 116.779 107.012 116.671 101.633 116.725C91.252 116.824 80.8708 116.977 70.4896 117.093C69.6729 117.248 68.8266 117.094 68.1214 116.662Z" fill="#159FED"/>
<path d="M103.451 58.7271C103.451 65.6481 100.091 71.0969 94.5749 75.5404C90.7932 78.5924 86.3138 80.4416 82.2751 83.1526C81.7611 83.5027 81.1278 83.8258 80.7056 83.2513C80.2834 82.6768 80.8066 81.9856 81.2288 81.5458C83.5151 79.3378 85.9432 77.275 88.4984 75.3698C93.8404 71.0251 97.8792 65.8546 97.8058 58.7181C97.6773 47.4434 84.8177 39.4632 74.5375 44.7235C71.0545 46.4996 68.2457 49.3214 66.5242 52.7743C64.8026 56.2272 64.2591 60.1291 64.9732 63.9066C66.194 70.7289 69.7919 75.4506 76.7035 77.4704C77.8439 77.7436 78.9993 77.9534 80.164 78.0987C80.7055 78.1975 81.238 78.2962 81.2105 78.9964C81.1829 79.6966 80.724 80.0108 80.0539 80.0556C75.2259 80.3429 70.765 79.3555 66.9558 76.3034C57.777 68.9066 56.7765 54.9479 63.3577 46.3303C66.6254 42.0574 71.0678 39.6876 76.2997 38.5117C87.9201 35.9084 100.376 43.3142 103.139 54.4542C103.478 55.8097 103.249 57.1472 103.451 58.7271Z" fill="#159FED"/>
<path d="M103.606 110.585C101.863 111.007 101.248 110.145 101.367 108.189C101.505 105.837 101.156 105.648 98.76 106.106C96.603 106.519 96.2543 106.312 96.3002 104.212C96.3002 102.821 95.1529 101.268 96.181 100.128C97.209 98.9875 98.7508 99.4902 100.109 99.3376C101.468 99.185 101.101 98.0718 100.862 97.3717C100.275 95.5763 100.862 95.0108 102.698 95.1006C103.676 95.0751 104.651 94.9609 105.608 94.7595C107.177 94.562 107.7 95.3609 107.746 96.7792C107.829 99.0593 108.205 99.4722 110.399 98.8887C112.593 98.3052 112.85 99.1311 112.923 100.953C113.088 104.957 113.18 104.984 109.252 105.549C108.398 105.675 108.214 106.079 108.15 106.824C107.746 110.54 107.709 110.558 103.606 110.585Z" fill="#159FED"/>
</g>
<defs>
<clipPath id="clip0_748_15">
<rect width="75" height="85" fill="white" transform="translate(45 38)"/>
</clipPath>
</defs>
</svg>
