<svg width="200" height="200" viewBox="0 0 200 200" fill="none" xmlns="http://www.w3.org/2000/svg">
<path d="M187.108 200L13.062 200C9.62694 200 6.33001 198.646 3.88525 196.231C1.44048 193.816 0.0446179 190.534 7.08053e-06 187.097L1.46948e-05 12.9032C0.0446258 9.46557 1.44049 6.18385 3.88525 3.76879C6.33002 1.35372 9.62695 -0.000282956 13.062 7.13402e-06L53.6048 8.90621e-06C57.0241 9.05567e-06 60.3032 1.35946 62.721 3.77928C65.1388 6.1991 66.4971 9.48109 66.4971 12.9032L66.4971 133.616L187.108 133.616C190.527 133.616 193.806 134.976 196.224 137.396C198.642 139.815 200 143.097 200 146.52L200 187.097C200 188.791 199.667 190.469 199.019 192.035C198.371 193.6 197.421 195.023 196.224 196.221C195.027 197.419 193.606 198.369 192.041 199.018C190.477 199.666 188.801 200 187.108 200Z" fill="white" fill-opacity="0.06"/>
</svg>
